<?xml version="1.0" standalone="no"?>
<!DOCTYPE svg PUBLIC "-//W3C//DTD SVG 20010904//EN"
 "http://www.w3.org/TR/2001/REC-SVG-20010904/DTD/svg10.dtd">
<svg version="1.0" xmlns="http://www.w3.org/2000/svg"
 width="900.000000pt" height="520.000000pt" viewBox="0 0 900.000000 520.000000"
 preserveAspectRatio="xMidYMid meet">

<g transform="translate(0.000000,520.000000) scale(0.100000,-0.100000)"
fill="#000000" stroke="none">
<path d="M3625 4755 c-586 -93 -1061 -524 -1211 -1097 -48 -187 -58 -435 -24
-634 111 -646 624 -1138 1277 -1225 128 -17 380 -7 503 20 222 49 396 128 583
264 l68 50 55 -54 54 -53 0 -91 0 -90 671 -669 670 -670 179 179 c151 150 177
181 167 194 -6 9 -307 312 -668 673 l-656 658 -94 0 -95 0 -52 53 -52 52 44
55 c105 133 215 355 257 518 32 126 49 259 49 397 0 730 -518 1344 -1236 1465
-138 23 -360 25 -489 5z m380 -421 c141 -13 321 -80 457 -170 90 -60 222 -192
281 -282 139 -208 199 -452 176 -708 -35 -376 -265 -703 -604 -860 -328 -151
-735 -124 -1036 68 -208 133 -374 358 -443 599 -34 118 -47 272 -35 405 47
507 446 907 949 953 93 9 116 8 255 -5z"/>
</g>
</svg>
